Coordinates
version=1
nRows=8
nColumns=28
inDegrees=yes

Units are S.I. units (second, meters, Newtons, ...)
Angles are in degrees.

endheader
time	pelvis_tilt	pelvis_list	pelvis_rotation	pelvis_tx	pelvis_ty	pelvis_tz	hip_flexion_r	hip_adduction_r	hip_rotation_r	knee_angle_r	ankle_angle_r	subtalar_angle_r	mtp_angle_r	hip_flexion_l	hip_adduction_l	hip_rotation_l	knee_angle_l	socket_flexion	socket_adduction	socket_rotation	socket_tx	socket_ty	socket_tz	foot_flex	lumbar_extension	lumbar_bending	lumbar_rotation
      0.95000000	      6.47935057	      1.86431161	     -3.19690524	      0.43848065	      1.04151684	      0.29985461	     -1.36526773	      0.15216048	     -7.48800951	    -18.76718995	     13.96036704	      1.02041545	     11.49668775	      5.05282556	     -1.31230912	     -4.11220309	    -53.41341676	      0.00000000	      0.00000000	      0.00000000	      0.00000000	      0.01204696	      0.00000000	      1.81390040	    -13.83371183	     -2.10950780	      5.14465577
      0.95416667	      6.44379604	      2.02129462	     -3.42818886	      0.44313422	      1.04223998	      0.30031194	     -1.75450264	     -0.05723677	     -7.48817092	    -18.43945564	     13.83535292	      1.35822236	     11.54008809	      5.62272268	     -1.11340091	     -4.08610160	    -52.91070480	      0.00000000	      0.00000000	      0.00000000	      0.00000000	      0.01219547	      0.00000000	      1.79734622	    -13.81868380	     -2.33695838	      5.35282884
      0.95833333	      6.45732007	      2.02122755	     -3.66771589	      0.44722079	      1.04286787	      0.30072852	     -2.02872519	     -0.11685883	     -7.55861575	    -18.41204786	     13.83259608	      1.39950229	     11.54515950	      6.20852187	     -1.09817746	     -4.06500122	    -52.50331772	      0.00000000	      0.00000000	      0.00000000	      0.00000000	      0.01229708	      0.00000000	      1.83673361	    -13.98229742	     -2.34789394	      5.38197336
      0.96250000	      6.35258172	      2.25356711	     -3.85666306	      0.45240431	      1.04350849	      0.30118087	     -2.51281208	     -0.37894592	     -7.47513704	    -17.79217445	     13.72462967	      1.84560847	     11.59481179	      6.74017810	     -0.81037758	     -3.98071561	    -51.79650029	      0.00000000	      0.00000000	      0.00000000	      0.00000000	      0.01236103	      0.00000000	      1.81284384	    -13.76884353	     -2.68111294	      5.61469930
      0.96666667	      6.36695726	      2.25073774	     -4.09136315	      0.45638841	      1.04406433	      0.30158927	     -2.77468236	     -0.43667027	     -7.54218506	    -17.77093243	     13.71571480	      1.89171419	     11.59981346	      7.33355353	     -0.80451816	     -3.94959937	    -51.35878259	      0.00000000	      0.00000000	      0.00000000	      0.00000000	      0.01261895	      0.00000000	      1.84999999	    -13.94420842	     -2.68586841	      5.64672645
      0.97083333	      6.29029878	      2.48875851	     -4.37964297	      0.46166455	      1.04459040	      0.30196886	     -3.18040708	     -0.79982547	     -7.69328626	    -17.34855824	     13.56977523	      3.02582336	     12.01513840	      7.75914897	     -0.50051512	     -3.94931398	    -50.52228431	      0.00000000	      0.00000000	      0.00000000	      0.00000000	      0.01253725	      0.00000000	      1.76043031	    -13.72949914	     -3.01378419	      6.35145828
      0.97500000	      6.28780360	      2.47742347	     -4.58689628	      0.46558638	      1.04502156	      0.30241009	     -3.42335482	     -0.83932359	     -7.73787783	    -17.32304815	     13.57409401	      3.06197728	     12.02364062	      8.34529612	     -0.51123818	     -3.87446525	    -50.01067795	      0.00000000	      0.00000000	      0.00000000	      0.00000000	      0.01274987	      0.00000000	      1.81752086	    -13.91152174	     -3.06692850	      6.35524736
      0.97916667	      6.15369144	      2.62272725	     -4.76053324	      0.47074635	      1.04539307	      0.30273255	     -3.83870316	     -1.01511908	     -7.66422657	    -16.78479774	     13.51397753	      3.38931658	     12.08212556	      8.81293209	     -0.29326558	     -3.67228194	    -49.10405411	      0.00000000	      0.00000000	      0.00000000	      0.00000000	      0.01247476	      0.00000000	      1.77188275	    -13.67076075	     -3.26070019	      6.45231102
